<svg version="1.1" id="Layer_1" xmlns="http://www.w3.org/2000/svg" xmlns:xlink="http://www.w3.org/1999/xlink" x="0px" y="0px"
	 width="100%" viewBox="0 0 4800 4800" enable-background="new 0 0 4800 4800" xml:space="preserve">
<path fill="#000000" opacity="1.000000" stroke="none" 
	d="
M2312.000000,4804.000000 
	C1541.333374,4804.000000 772.666687,4804.000000 4.000000,4804.000000 
	C4.000000,3204.000000 4.000000,1604.000000 4.000000,4.000000 
	C1604.000000,4.000000 3204.000000,4.000000 4804.000000,4.000000 
	C4804.000000,1604.000000 4804.000000,3204.000000 4804.000000,4804.000000 
	C3974.000000,4804.000000 3144.000000,4804.000000 2312.000000,4804.000000 
M2783.706787,2102.248047 
	C2779.424316,2098.013916 2775.231689,2093.683594 2770.842773,2089.562744 
	C2755.729980,2075.372559 2738.144043,2066.826172 2717.090820,2066.391113 
	C2709.095947,2066.225830 2701.099609,2066.019287 2693.103760,2066.018799 
	C2417.115967,2065.999512 2141.128174,2066.004150 1865.140259,2065.996094 
	C1858.475220,2065.996094 1851.760498,2066.384033 1845.160156,2065.704590 
	C1839.277344,2065.099121 1833.114502,2064.176025 1827.784668,2061.801270 
	C1811.243774,2054.431641 1807.188477,2038.717896 1817.447021,2023.903564 
	C1818.958008,2021.721680 1820.701294,2019.661377 1822.564697,2017.768555 
	C1854.366211,1985.466309 1885.999390,1952.994141 1918.118408,1921.010132 
	C1934.409546,1904.787476 1954.683838,1897.078491 1977.698853,1896.781860 
	C1985.030762,1896.687378 1992.364502,1896.719971 1999.697388,1896.719971 
	C2565.672607,1896.717651 3131.647705,1896.718018 3697.622803,1896.717285 
	C3704.955811,1896.717163 3712.292236,1896.839722 3719.620605,1896.651245 
	C3724.270508,1896.531738 3729.013428,1896.435913 3733.532959,1895.474365 
	C3751.113281,1891.734131 3762.609131,1878.735352 3764.229004,1860.736084 
	C3764.824951,1854.114868 3764.683838,1847.416748 3764.684570,1840.753784 
	C3764.705078,1652.095459 3764.703125,1463.437012 3764.688721,1274.778687 
	C3764.688232,1268.780884 3764.834473,1262.758057 3764.366211,1256.789795 
	C3762.761963,1236.340820 3749.269043,1222.164673 3728.930908,1219.896484 
	C3721.674561,1219.087280 3714.287109,1219.304688 3706.959473,1219.304443 
	C3021.656250,1219.281738 2336.353271,1219.283203 1651.050049,1219.288574 
	C1645.717407,1219.288574 1640.384521,1219.427002 1635.052246,1219.399048 
	C1615.436768,1219.296021 1598.736328,1226.746094 1584.065796,1239.237305 
	C1579.506470,1243.119263 1575.276367,1247.400635 1571.024170,1251.628540 
	C1553.533203,1269.019775 1536.091797,1286.460693 1518.631958,1303.883301 
	C1373.763428,1448.444214 1229.046143,1593.157349 1083.861938,1737.400635 
	C1062.199829,1758.922363 1051.703613,1783.093628 1051.751953,1813.885132 
	C1052.211548,2106.538086 1052.022827,2399.192139 1052.038696,2691.845947 
	C1052.039062,2697.176025 1051.862183,2702.551025 1052.453613,2707.828369 
	C1055.018433,2730.719727 1072.866333,2744.819580 1090.439209,2744.706055 
	C1098.435791,2744.654297 1106.433960,2744.943848 1114.431396,2744.944092 
	C1525.079956,2744.957031 1935.728638,2744.955566 2346.377197,2744.956055 
	C2353.710205,2744.956055 2361.045166,2745.072754 2368.375977,2744.944580 
	C2395.087158,2744.477539 2417.719238,2753.483154 2436.616699,2772.684570 
	C2465.139404,2801.666260 2494.181396,2830.136475 2522.889160,2858.937012 
	C2527.102539,2863.164062 2531.289062,2867.635742 2534.458252,2872.645996 
	C2544.212402,2888.065918 2538.293945,2905.014648 2520.918701,2911.187500 
	C2515.363525,2913.160645 2509.228516,2913.804932 2503.294678,2914.324463 
	C2497.339844,2914.845703 2491.304932,2914.459473 2485.305176,2914.459473 
	C2028.658691,2914.460693 1572.012085,2914.456055 1115.365601,2914.492188 
	C1106.042358,2914.492920 1096.658691,2914.380371 1087.408569,2915.337891 
	C1068.712402,2917.273438 1055.539429,2929.997070 1052.686035,2948.445801 
	C1051.877075,2953.676025 1052.051025,2959.083252 1052.050171,2964.409424 
	C1052.021606,3156.400879 1052.022095,3348.392578 1052.044800,3540.384033 
	C1052.045410,3545.712158 1051.899414,3551.095215 1052.562744,3556.358887 
	C1055.140625,3576.816895 1068.974243,3590.002686 1089.578369,3591.822021 
	C1094.214966,3592.231201 1098.903076,3592.140137 1103.567383,3592.140381 
	C1577.546509,3592.153564 2051.525635,3592.155518 2525.504883,3592.131836 
	C2531.498779,3592.131592 2537.570068,3592.338623 2543.471924,3591.505859 
	C2560.990479,3589.034424 2573.926758,3576.708740 2576.917725,3559.196045 
	C2578.253174,3551.378174 2578.419189,3543.291016 2578.425293,3535.325684 
	C2578.514893,3419.330811 2578.487061,3303.335938 2578.488037,3187.341064 
	C2578.488525,3125.343750 2578.424805,3063.346436 2578.566162,3001.349609 
	C2578.585693,2992.718018 2578.544434,2983.851318 2580.390381,2975.504883 
	C2584.994873,2954.686035 2604.267090,2947.253662 2621.567871,2959.490967 
	C2628.577881,2964.448975 2634.720947,2970.736572 2640.832275,2976.845703 
	C2807.731201,3143.686523 2974.574707,3310.582764 3141.428711,3477.468506 
	C3170.180420,3506.225586 3199.108887,3534.808350 3227.634521,3563.787842 
	C3246.932373,3583.391602 3269.585205,3592.499023 3297.418213,3592.393311 
	C3436.076904,3591.866211 3574.738281,3592.155518 3713.398926,3592.140137 
	C3718.063232,3592.139648 3722.757812,3592.257080 3727.386719,3591.798096 
	C3748.634033,3589.691895 3762.796631,3575.289551 3764.389648,3554.108154 
	C3764.838623,3548.137695 3764.688965,3542.116699 3764.689453,3536.118896 
	C3764.703369,3400.791504 3764.700928,3265.464111 3764.695801,3130.136719 
	C3764.695801,3125.470459 3764.574707,3120.803955 3764.616943,3116.138184 
	C3764.808350,3095.056885 3756.819824,3077.217285 3742.907959,3061.819336 
	C3737.996826,3056.383789 3732.708496,3051.284912 3727.524170,3046.100342 
	C3413.591797,2732.149414 3099.652832,2418.205322 2783.706787,2102.248047 
z"/>
<path fill="#FFFFFF" opacity="1.000000" stroke="none" 
	d="
M2784.710449,2103.254395 
	C3099.652832,2418.205322 3413.591797,2732.149414 3727.524170,3046.100342 
	C3732.708496,3051.284912 3737.996826,3056.383789 3742.907959,3061.819336 
	C3756.819824,3077.217285 3764.808350,3095.056885 3764.616943,3116.138184 
	C3764.574707,3120.803955 3764.695801,3125.470459 3764.695801,3130.136719 
	C3764.700928,3265.464111 3764.703369,3400.791504 3764.689453,3536.118896 
	C3764.688965,3542.116699 3764.838623,3548.137695 3764.389648,3554.108154 
	C3762.796631,3575.289551 3748.634033,3589.691895 3727.386719,3591.798096 
	C3722.757812,3592.257080 3718.063232,3592.139648 3713.398926,3592.140137 
	C3574.738281,3592.155518 3436.076904,3591.866211 3297.418213,3592.393311 
	C3269.585205,3592.499023 3246.932373,3583.391602 3227.634521,3563.787842 
	C3199.108887,3534.808350 3170.180420,3506.225586 3141.428711,3477.468506 
	C2974.574707,3310.582764 2807.731201,3143.686523 2640.832275,2976.845703 
	C2634.720947,2970.736572 2628.577881,2964.448975 2621.567871,2959.490967 
	C2604.267090,2947.253662 2584.994873,2954.686035 2580.390381,2975.504883 
	C2578.544434,2983.851318 2578.585693,2992.718018 2578.566162,3001.349609 
	C2578.424805,3063.346436 2578.488525,3125.343750 2578.488037,3187.341064 
	C2578.487061,3303.335938 2578.514893,3419.330811 2578.425293,3535.325684 
	C2578.419189,3543.291016 2578.253174,3551.378174 2576.917725,3559.196045 
	C2573.926758,3576.708740 2560.990479,3589.034424 2543.471924,3591.505859 
	C2537.570068,3592.338623 2531.498779,3592.131592 2525.504883,3592.131836 
	C2051.525635,3592.155518 1577.546509,3592.153564 1103.567383,3592.140381 
	C1098.903076,3592.140137 1094.214966,3592.231201 1089.578369,3591.822021 
	C1068.974243,3590.002686 1055.140625,3576.816895 1052.562744,3556.358887 
	C1051.899414,3551.095215 1052.045410,3545.712158 1052.044800,3540.384033 
	C1052.022095,3348.392578 1052.021606,3156.400879 1052.050171,2964.409424 
	C1052.051025,2959.083252 1051.877075,2953.676025 1052.686035,2948.445801 
	C1055.539429,2929.997070 1068.712402,2917.273438 1087.408569,2915.337891 
	C1096.658691,2914.380371 1106.042358,2914.492920 1115.365601,2914.492188 
	C1572.012085,2914.456055 2028.658691,2914.460693 2485.305176,2914.459473 
	C2491.304932,2914.459473 2497.339844,2914.845703 2503.294678,2914.324463 
	C2509.228516,2913.804932 2515.363525,2913.160645 2520.918701,2911.187500 
	C2538.293945,2905.014648 2544.212402,2888.065918 2534.458252,2872.645996 
	C2531.289062,2867.635742 2527.102539,2863.164062 2522.889160,2858.937012 
	C2494.181396,2830.136475 2465.139404,2801.666260 2436.616699,2772.684570 
	C2417.719238,2753.483154 2395.087158,2744.477539 2368.375977,2744.944580 
	C2361.045166,2745.072754 2353.710205,2744.956055 2346.377197,2744.956055 
	C1935.728638,2744.955566 1525.079956,2744.957031 1114.431396,2744.944092 
	C1106.433960,2744.943848 1098.435791,2744.654297 1090.439209,2744.706055 
	C1072.866333,2744.819580 1055.018433,2730.719727 1052.453613,2707.828369 
	C1051.862183,2702.551025 1052.039062,2697.176025 1052.038696,2691.845947 
	C1052.022827,2399.192139 1052.211548,2106.538086 1051.751953,1813.885132 
	C1051.703613,1783.093628 1062.199829,1758.922363 1083.861938,1737.400635 
	C1229.046143,1593.157349 1373.763428,1448.444214 1518.631958,1303.883301 
	C1536.091797,1286.460693 1553.533203,1269.019775 1571.024170,1251.628540 
	C1575.276367,1247.400635 1579.506470,1243.119263 1584.065796,1239.237305 
	C1598.736328,1226.746094 1615.436768,1219.296021 1635.052246,1219.399048 
	C1640.384521,1219.427002 1645.717407,1219.288574 1651.050049,1219.288574 
	C2336.353271,1219.283203 3021.656250,1219.281738 3706.959473,1219.304443 
	C3714.287109,1219.304688 3721.674561,1219.087280 3728.930908,1219.896484 
	C3749.269043,1222.164673 3762.761963,1236.340820 3764.366211,1256.789795 
	C3764.834473,1262.758057 3764.688232,1268.780884 3764.688721,1274.778687 
	C3764.703125,1463.437012 3764.705078,1652.095459 3764.684570,1840.753784 
	C3764.683838,1847.416748 3764.824951,1854.114868 3764.229004,1860.736084 
	C3762.609131,1878.735352 3751.113281,1891.734131 3733.532959,1895.474365 
	C3729.013428,1896.435913 3724.270508,1896.531738 3719.620605,1896.651245 
	C3712.292236,1896.839722 3704.955811,1896.717163 3697.622803,1896.717285 
	C3131.647705,1896.718018 2565.672607,1896.717651 1999.697388,1896.719971 
	C1992.364502,1896.719971 1985.030762,1896.687378 1977.698853,1896.781860 
	C1954.683838,1897.078491 1934.409546,1904.787476 1918.118408,1921.010132 
	C1885.999390,1952.994141 1854.366211,1985.466309 1822.564697,2017.768555 
	C1820.701294,2019.661377 1818.958008,2021.721680 1817.447021,2023.903564 
	C1807.188477,2038.717896 1811.243774,2054.431641 1827.784668,2061.801270 
	C1833.114502,2064.176025 1839.277344,2065.099121 1845.160156,2065.704590 
	C1851.760498,2066.384033 1858.475220,2065.996094 1865.140259,2065.996094 
	C2141.128174,2066.004150 2417.115967,2065.999512 2693.103760,2066.018799 
	C2701.099609,2066.019287 2709.095947,2066.225830 2717.090820,2066.391113 
	C2738.144043,2066.826172 2755.729980,2075.372559 2770.842773,2089.562744 
	C2775.231689,2093.683594 2779.424316,2098.013916 2784.710449,2103.254395 
z"/>
</svg>